<svg width="40" height="40" viewBox="0 0 40 40" fill="none" xmlns="http://www.w3.org/2000/svg">
<path d="M37.6667 40C33.037 40 28.463 38.9907 23.9444 36.9722C19.4259 34.9537 15.3148 32.0926 11.6111 28.3889C7.90741 24.6852 5.0463 20.5741 3.02778 16.0556C1.00926 11.537 0 6.96296 0 2.33333C0 1.66667 0.222222 1.11111 0.666667 0.666667C1.11111 0.222222 1.66667 0 2.33333 0H11.3333C11.8519 0 12.3148 0.175926 12.7222 0.527778C13.1296 0.87963 13.3704 1.2963 13.4444 1.77778L14.8889 9.55556C14.963 10.1481 14.9444 10.6481 14.8333 11.0556C14.7222 11.463 14.5185 11.8148 14.2222 12.1111L8.83333 17.5556C9.57407 18.9259 10.4537 20.25 11.4722 21.5278C12.4907 22.8056 13.6111 24.037 14.8333 25.2222C15.9815 26.3704 17.1852 27.4352 18.4444 28.4167C19.7037 29.3981 21.037 30.2963 22.4444 31.1111L27.6667 25.8889C28 25.5556 28.4352 25.3056 28.9722 25.1389C29.5093 24.9722 30.037 24.9259 30.5556 25L38.2222 26.5556C38.7407 26.7037 39.1667 26.9722 39.5 27.3611C39.8333 27.75 40 28.1852 40 28.6667V37.6667C40 38.3333 39.7778 38.8889 39.3333 39.3333C38.8889 39.7778 38.3333 40 37.6667 40ZM6.72222 13.3333L10.3889 9.66667L9.44444 4.44444H4.5C4.68519 5.96296 4.94444 7.46296 5.27778 8.94444C5.61111 10.4259 6.09259 11.8889 6.72222 13.3333ZM26.6111 33.2222C28.0556 33.8519 29.5278 34.3519 31.0278 34.7222C32.5278 35.0926 34.037 35.3333 35.5556 35.4444V30.5556L30.3333 29.5L26.6111 33.2222Z" fill="#CED4DA"/>
</svg>
