<svg width="80" height="60" viewBox="0 0 80 60" fill="none" xmlns="http://www.w3.org/2000/svg">
<path d="M80 0C76.88 1.73614 70.62 4.10224 66.94 4.7847C66.832 4.81095 66.744 4.8447 66.64 4.87094C63.388 1.86363 58.932 0 54 0C44.06 0 36 7.55578 36 16.8739C36 17.3652 35.956 18.2689 36 18.7488C22.588 18.7488 12.38 12.1642 5.06 3.74977C4.264 5.62465 3.916 8.58696 3.916 11.3693C3.916 16.6227 8.296 21.7824 15.116 24.9809C13.86 25.2847 12.476 25.5022 11.036 25.5022C8.712 25.5022 6.252 24.9284 4 23.1886C4 23.2523 4 23.3123 4 23.3798C4 30.7218 12.312 35.7203 19.704 37.1114C18.204 37.9401 15.18 38.0226 13.704 38.0226C12.664 38.0226 8.984 37.5764 8 37.4039C10.056 43.4223 17.472 46.8046 24.54 46.9246C19.012 50.9893 15.176 52.4967 3.856 52.4967H0C7.152 56.794 16.26 60 25.388 60C55.108 60 72 38.7651 72 18.7488C72 18.4263 71.992 17.7514 71.98 17.0727C71.98 17.0052 72 16.9414 72 16.8739C72 16.7727 71.968 16.6752 71.968 16.574C71.956 16.064 71.944 15.5878 71.932 15.3403C75.092 13.2029 77.832 10.5368 80 7.49953C77.1 8.70696 73.988 9.51691 70.72 9.88438C74.056 8.0095 78.796 3.53978 80 0Z" fill="#1C2024"/>
</svg>
