<svg width="60" height="60" viewBox="0 0 60 60" fill="none" xmlns="http://www.w3.org/2000/svg">
<path d="M51.2335 8.784C45.5753 3.123 38.0509 0.003 30.0345 0C13.5157 0 0.0720038 13.437 0.0660035 29.955C0.0630034 35.235 1.44307 40.389 4.0652 44.931L0 60L15.6998 56.289C20.077 58.677 25.0032 59.934 30.0195 59.937H30.0315C46.5473 59.937 59.991 46.497 60 29.982C60.006 21.975 56.8918 14.448 51.2335 8.784ZM44.6962 40.662C44.0722 42.411 41.015 44.097 39.641 44.22C38.2669 44.346 36.9798 44.841 30.6555 42.348C23.0441 39.348 18.2379 31.545 17.8659 31.047C17.4909 30.546 14.8087 26.988 14.8087 23.304C14.8087 19.62 16.7438 17.808 17.4309 17.061C18.1179 16.311 18.9279 16.125 19.429 16.125C19.927 16.125 20.428 16.125 20.863 16.143C21.3971 16.164 21.9881 16.191 22.5491 17.436C23.2152 18.918 24.6702 22.62 24.8562 22.995C25.0422 23.37 25.1683 23.808 24.9192 24.306C24.6702 24.804 24.5442 25.116 24.1722 25.554C23.7972 25.992 23.3862 26.529 23.0501 26.865C22.6751 27.237 22.2851 27.645 22.7201 28.392C23.1582 29.142 24.6582 31.593 26.8843 33.576C29.7465 36.126 32.1556 36.915 32.9056 37.293C33.6557 37.668 34.0907 37.605 34.5287 37.104C34.9667 36.606 36.4008 34.92 36.8988 34.17C37.3969 33.42 37.8979 33.546 38.5849 33.795C39.272 34.044 42.9531 35.856 43.7002 36.231C44.4502 36.606 44.9482 36.792 45.1342 37.104C45.3203 37.413 45.3203 38.913 44.6962 40.662Z" fill="#1C2024"/>
</svg>
